# xmcd CD database file
#
# Track frame offsets:
#	150
#	21210
#	45581
#	75125
#	95548
#	114436
#	133932
#	154671
#	183212
#	207629
#
# Disc length: 3031 seconds
#
# Revision: 1
# Processed by: cddbd v1.5.2PL0 Copyright (c) Steve Scherf et al.
# Submitted via: CDex 1.70beta2
#
DISCID=790bd50a
DTITLE=Jugoya - Usagi No Daibouken
DYEAR=2007
DGENRE=Jazz
TTITLE0=Toumeinamizuumi
TTITLE1=Tsuki - A Lua -
TTITLE2=Usagi No Daibouken
TTITLE3=Imagem
TTITLE4=Front Glass
TTITLE5=James
TTITLE6=Oceano
TTITLE7=Hymn To Freedom
TTITLE8=Sakurafubuki
TTITLE9=Futeshi No Siesta
EXTD=YEAR: 2007
EXTT0=
EXTT1=
EXTT2=
EXTT3=
EXTT4=
EXTT5=
EXTT6=
EXTT7=
EXTT8=
EXTT9=
PLAYORDER=
